<svg id="visual" viewBox="0 0 1500 350" width="1500" height="350" xmlns="http://www.w3.org/2000/svg" xmlns:xlink="http://www.w3.org/1999/xlink" version="1.1"><path d="M0 203L62.5 193.2C125 183.3 250 163.7 375 166.7C500 169.7 625 195.3 750 188.2C875 181 1000 141 1125 135.3C1250 129.7 1375 158.3 1437.5 172.7L1500 187L1500 351L1437.5 351C1375 351 1250 351 1125 351C1000 351 875 351 750 351C625 351 500 351 375 351C250 351 125 351 62.5 351L0 351Z" fill="#ffffff" stroke-linecap="round" stroke-linejoin="miter"></path></svg>