<svg width="24" height="24" viewBox="0 0 24 24" fill="none" xmlns="http://www.w3.org/2000/svg">
<path d="M19.3684 17.2222H4.63158M19.3684 17.2222C19.9498 17.2222 20.4211 16.7248 20.4211 16.1111V6.11111C20.4211 5.49746 19.9498 5 19.3684 5H4.63158C4.05023 5 3.57895 5.49746 3.57895 6.11111V16.1111C3.57895 16.7248 4.05023 17.2222 4.63158 17.2222M19.3684 17.2222H20.6842C21.4109 17.2222 22 17.844 22 18.6111C22 19.3782 21.4109 20 20.6842 20H3.31579C2.5891 20 2 19.3782 2 18.6111C2 17.844 2.5891 17.2222 3.31579 17.2222H4.63158" stroke="black" stroke-width="2" stroke-linecap="round" stroke-linejoin="round"/>
</svg>
